<svg
   width="924"
   height="1323"
   viewBox="0 0 924 1323"
   version="1.1"
   xmlns="http://www.w3.org/2000/svg">
  <path
     d="M 462,0 
        C 205,0 0,211 0,462
        C 0,742 205,851 335,1092
        C 429,1238 402,1323 462,1323
        C 522,1323 495,1238 591,1092 
        C 719,851 924,742 924,462 
        C 924,211 719,0 462,0 
        Z
        M 462,285 
        C 365,285 285,363 285,461
        C 285,559 365,638 462,638
        C 559,638 649,559 649,461
        C 649,363 559,285 462,285
        Z" 
     style="fill:#3648D5"
     fill-rule="evenodd" />
</svg>
