<!--   - 桑原町 -->
<!-- A - 難波町 -->
<!-- B - 本町十五丁目 -->
<!-- C - 　　　　　　 -->
<!-- D - 御所八幡町 -->
<!--   - 岡松町 -->

<svg version="1.1" xmlns="http://www.w3.org/2000/svg" viewBox="0 0 920 480" width="100%">
	<rect x="0" y="0" width="920" height="480" fill="lightgray" />

	<text x="150" y="35" fill="black" 
	      font-size="22" font-family="YuGothic" 
	      dominant-baseline="central" text-anchor="middle">（公称）町 </text>
	<ellipse cx="150" cy="250" rx="110" ry="190" stroke="black" fill="white" />
	<circle cx="210" cy="160" r="4" />
	<circle cx="210" cy="205" r="4" />
	<circle cx="210" cy="250" r="4" />
	<circle cx="210" cy="295" r="4" />
	<circle cx="210" cy="340" r="4" />

	<text x="190" y="160" fill="black" 
	      font-size="18" font-family="YuGothic" 
	      dominant-baseline="central" text-anchor="end">難波町</text>
	<text x="190" y="205" fill="black" 
	      font-size="18" font-family="YuGothic" 
	      dominant-baseline="central" text-anchor="end">本町十五丁目</text>
	<text x="190" y="250" fill="black" 
	      font-size="18" font-family="YuGothic" 
	      dominant-baseline="central" text-anchor="end">桑原町</text>
	<text x="190" y="295" fill="black" 
	      font-size="18" font-family="YuGothic" font-weight="bold" 
	      dominant-baseline="central" text-anchor="end">御所八幡町</text>
	<text x="190" y="340" fill="black" 
	      font-size="18" font-family="YuGothic" font-weight="bold" 
	      dominant-baseline="central" text-anchor="end">岡松町</text>

	<text x="600" y="35" fill="black" 
	      font-size="22" font-family="YuGothic" 
	      dominant-baseline="central" text-anchor="middle">広報板の町名表示</text>
	<ellipse cx="600" cy="250" rx="280" ry="190" stroke="black" fill="white" />
	<circle cx="410" cy="160" r="4" />
	<circle cx="410" cy="220" r="4" />
	<circle cx="410" cy="280" r="4" />
	<circle cx="410" cy="340" r="4" />

	<text x="430" y="160" fill="black" 
	      font-size="18" font-family="YuGothic" 
	      dominant-baseline="central" text-anchor="start">｢左京区難波町｣</text>
	<text x="430" y="220" fill="black" 
	      font-size="18" font-family="YuGothic" 
	      dominant-baseline="central" text-anchor="start">｢東山区本町十五丁目東福寺北門前｣</text>
	<text x="430" y="280" fill="black" 
	      font-size="18" font-family="YuGothic" 
	      dominant-baseline="central" text-anchor="start">｢東山区本町十五丁目月輪坦町｣</text>
	<text x="430" y="340" fill="black" 
	      font-size="18" font-family="YuGothic" font-weight="bold" 
	      dominant-baseline="central" text-anchor="start">｢上京区烏丸通今出川上る御所八幡町・岡松町｣</text>
	
	<line x1="220" y1="160" x2="400" y2="160" stroke="black" />
	<line x1="220" y1="206" x2="400" y2="219" stroke="black" />
	<line x1="220" y1="208" x2="400" y2="277" stroke="black" />
	<line x1="220" y1="298" x2="400" y2="337" stroke="black" />
	<line x1="220" y1="340" x2="400" y2="340" stroke="black" />

	<!-- <line x1="10" y1="10" x2="50" y2="10" stroke="lightgray" stroke-linecap="round" /> -->
	<!-- <text x="30" y="10" dy="3" fill="black" 
                font-size="15" font-family="monospace" dominant-baseline="middle" text-anchor="middle">1</text> -->
	<!--  -->
</svg>
